<svg height="512pt" viewBox="0 0 512 512.001" width="512pt" xmlns="http://www.w3.org/2000/svg"><path d="m352.363281 256c0-53.132812-43.230469-96.363281-96.363281-96.363281s-96.359375 43.230469-96.359375 96.363281 43.226563 96.363281 96.359375 96.363281 96.363281-43.230469 96.363281-96.363281zm-96.363281 81.359375c-44.863281 0-81.359375-36.496094-81.359375-81.359375s36.496094-81.363281 81.359375-81.363281 81.359375 36.5 81.359375 81.363281-36.496094 81.359375-81.359375 81.359375zm0 0"/><path d="m256 207.871094c-26.539062 0-48.125 21.589844-48.125 48.128906 0 26.535156 21.585938 48.125 48.125 48.125s48.125-21.589844 48.125-48.125c0-26.539062-21.585938-48.128906-48.125-48.128906zm0 81.253906c-18.265625 0-33.125-14.859375-33.125-33.125s14.859375-33.125 33.125-33.125 33.125 14.859375 33.125 33.125-14.859375 33.125-33.125 33.125zm0 0"/><path d="m498.085938 235.226562h-27c-9.8125-102.867187-91.445313-184.5-194.3125-194.3125v-27.003906c0-7.667968-6.242188-13.910156-13.910157-13.910156h-13.726562c-7.667969 0-13.910157 6.242188-13.910157 13.914062v27c-102.867187 9.8125-184.5 91.445313-194.3125 194.3125h-27c-7.671874 0-13.914062 6.242188-13.914062 13.914063v13.722656c0 7.671875 6.242188 13.910157 13.914062 13.910157h27c9.8125 102.867187 91.445313 184.5 194.3125 194.3125v27.003906c0 7.667968 6.242188 13.910156 13.910157 13.910156h13.726562c7.667969 0 13.910157-6.242188 13.910157-13.910156v-27.003906c102.867187-9.8125 184.5-91.441407 194.3125-194.3125h27c7.671874 0 13.914062-6.238282 13.914062-13.910157v-13.722656c0-7.671875-6.242188-13.914063-13.914062-13.914063zm-1.085938 26.546876h-26.3125c-7.5625 0-13.796875 5.691406-14.503906 13.234374-8.996094 95.984376-85.191406 172.179688-181.171875 181.179688-7.546875.703125-13.238281 6.9375-13.238281 14.5v26.3125h-11.546876v-26.3125c0-7.5625-5.6875-13.796875-13.234374-14.5-95.984376-9-172.179688-85.195312-181.175782-181.179688-.710937-7.546874-6.945312-13.234374-14.503906-13.234374h-26.3125v-11.546876h26.3125c7.558594 0 13.792969-5.6875 14.503906-13.234374 8.996094-95.984376 85.191406-172.179688 181.175782-181.179688 7.546874-.707031 13.234374-6.941406 13.234374-14.5v-26.3125h11.546876v26.3125c0 7.558594 5.6875 13.792969 13.234374 14.5 95.984376 9 172.179688 85.195312 181.175782 181.179688.707031 7.542968 6.941406 13.234374 14.503906 13.234374h26.3125zm0 0"/><path d="m273.492188 398.699219c.316406 0 .640624-.023438.964843-.0625 71.464844-9.160157 125.355469-70.480469 125.355469-142.636719 0-79.296875-64.515625-143.8125-143.8125-143.8125s-143.8125 64.515625-143.8125 143.8125c0 72.15625 53.894531 133.476562 125.359375 142.636719 4.097656.523437 7.867187-2.375 8.394531-6.484375.523438-4.109375-2.378906-7.867188-6.488281-8.394532-64-8.203124-112.261719-63.128906-112.261719-127.757812 0-71.027344 57.785156-128.8125 128.8125-128.8125s128.808594 57.785156 128.808594 128.8125c0 64.628906-48.261719 119.554688-112.261719 127.757812-4.109375.527344-7.015625 4.285157-6.488281 8.394532.484375 3.785156 3.710938 6.546875 7.429688 6.546875zm0 0"/><path d="m437.914062 245.964844c4.125-.394532 7.148438-4.054688 6.753907-8.179688-9.203125-96.484375-90.472657-171.328125-188.667969-171.328125-104.511719 0-189.542969 85.027344-189.542969 189.542969s85.03125 189.542969 189.542969 189.542969c98.210938 0 179.46875-74.863281 188.667969-171.332031.394531-4.121094-2.628907-7.785157-6.753907-8.179688-4.117187-.382812-7.785156 2.632812-8.179687 6.757812-8.578125 89.933594-83.269531 157.753907-173.734375 157.753907-96.242188 0-174.542969-78.300781-174.542969-174.542969s78.300781-174.542969 174.542969-174.542969c90.464844 0 165.15625 67.820313 173.734375 157.753907.394531 4.125 4.054687 7.140624 8.179687 6.753906zm0 0"/></svg>